<mxfile host="app.diagrams.net" agent="Mozilla/5.0 (Windows NT 10.0; Win64; x64) AppleWebKit/537.36 (KHTML, like Gecko) Chrome/132.0.0.0 Safari/537.36" version="26.0.11">
  <diagram name="Page-1" id="nehVLXHQttereqlWMtnN">
    <mxGraphModel dx="1730" dy="468" grid="1" gridSize="10" guides="1" tooltips="1" connect="1" arrows="1" fold="1" page="1" pageScale="1" pageWidth="850" pageHeight="1100" math="0" shadow="0">
      <root>
        <mxCell id="0" />
        <mxCell id="1" parent="0" />
        <mxCell id="EHPUk68qeHJAw_Frci1N-1" value="" style="triangle;whiteSpace=wrap;html=1;" vertex="1" parent="1">
          <mxGeometry x="70" y="120" width="60" height="80" as="geometry" />
        </mxCell>
        <mxCell id="EHPUk68qeHJAw_Frci1N-4" value="" style="endArrow=classic;html=1;rounded=0;exitX=0;exitY=0.5;exitDx=0;exitDy=0;" edge="1" parent="1" source="EHPUk68qeHJAw_Frci1N-1">
          <mxGeometry width="50" height="50" relative="1" as="geometry">
            <mxPoint x="-10" y="200" as="sourcePoint" />
            <mxPoint x="30" y="160" as="targetPoint" />
          </mxGeometry>
        </mxCell>
        <mxCell id="EHPUk68qeHJAw_Frci1N-6" value="" style="ellipse;whiteSpace=wrap;html=1;aspect=fixed;" vertex="1" parent="1">
          <mxGeometry x="130" y="155" width="10" height="10" as="geometry" />
        </mxCell>
        <mxCell id="EHPUk68qeHJAw_Frci1N-7" value="" style="verticalLabelPosition=bottom;shadow=0;dashed=0;align=center;html=1;verticalAlign=top;shape=mxgraph.electrical.logic_gates.logic_gate;operation=or;" vertex="1" parent="1">
          <mxGeometry x="70" y="230" width="100" height="60" as="geometry" />
        </mxCell>
        <mxCell id="EHPUk68qeHJAw_Frci1N-8" value="" style="verticalLabelPosition=bottom;shadow=0;dashed=0;align=center;html=1;verticalAlign=top;shape=mxgraph.electrical.logic_gates.logic_gate;operation=xor;" vertex="1" parent="1">
          <mxGeometry x="440" y="130" width="100" height="60" as="geometry" />
        </mxCell>
        <mxCell id="EHPUk68qeHJAw_Frci1N-9" style="edgeStyle=orthogonalEdgeStyle;rounded=0;orthogonalLoop=1;jettySize=auto;html=1;exitX=1;exitY=0.5;exitDx=0;exitDy=0;entryX=0;entryY=0.25;entryDx=0;entryDy=0;entryPerimeter=0;" edge="1" parent="1" source="EHPUk68qeHJAw_Frci1N-6" target="EHPUk68qeHJAw_Frci1N-8">
          <mxGeometry relative="1" as="geometry" />
        </mxCell>
        <mxCell id="EHPUk68qeHJAw_Frci1N-10" style="edgeStyle=orthogonalEdgeStyle;rounded=0;orthogonalLoop=1;jettySize=auto;html=1;exitX=1;exitY=0.5;exitDx=0;exitDy=0;exitPerimeter=0;entryX=0;entryY=0.25;entryDx=0;entryDy=0;entryPerimeter=0;" edge="1" parent="1" source="EHPUk68qeHJAw_Frci1N-7" target="EHPUk68qeHJAw_Frci1N-12">
          <mxGeometry relative="1" as="geometry">
            <mxPoint x="540" y="260" as="targetPoint" />
          </mxGeometry>
        </mxCell>
        <mxCell id="EHPUk68qeHJAw_Frci1N-11" style="edgeStyle=orthogonalEdgeStyle;rounded=0;orthogonalLoop=1;jettySize=auto;html=1;exitX=1;exitY=0.5;exitDx=0;exitDy=0;exitPerimeter=0;entryX=0;entryY=0.75;entryDx=0;entryDy=0;entryPerimeter=0;" edge="1" parent="1" source="EHPUk68qeHJAw_Frci1N-7" target="EHPUk68qeHJAw_Frci1N-8">
          <mxGeometry relative="1" as="geometry" />
        </mxCell>
        <mxCell id="EHPUk68qeHJAw_Frci1N-12" value="" style="shape=or;whiteSpace=wrap;html=1;" vertex="1" parent="1">
          <mxGeometry x="680" y="230" width="60" height="80" as="geometry" />
        </mxCell>
        <mxCell id="EHPUk68qeHJAw_Frci1N-13" value="" style="verticalLabelPosition=bottom;shadow=0;dashed=0;align=center;html=1;verticalAlign=top;shape=mxgraph.electrical.logic_gates.logic_gate;operation=xor;" vertex="1" parent="1">
          <mxGeometry x="510" y="390" width="120" height="60" as="geometry" />
        </mxCell>
        <mxCell id="EHPUk68qeHJAw_Frci1N-14" style="edgeStyle=orthogonalEdgeStyle;rounded=0;orthogonalLoop=1;jettySize=auto;html=1;entryX=0;entryY=0.75;entryDx=0;entryDy=0;entryPerimeter=0;" edge="1" parent="1" source="EHPUk68qeHJAw_Frci1N-13" target="EHPUk68qeHJAw_Frci1N-12">
          <mxGeometry relative="1" as="geometry" />
        </mxCell>
        <mxCell id="EHPUk68qeHJAw_Frci1N-15" value="" style="shape=or;whiteSpace=wrap;html=1;" vertex="1" parent="1">
          <mxGeometry x="220" y="330" width="60" height="80" as="geometry" />
        </mxCell>
        <mxCell id="EHPUk68qeHJAw_Frci1N-22" value="" style="endArrow=classic;html=1;rounded=0;exitX=0;exitY=0.25;exitDx=0;exitDy=0;exitPerimeter=0;" edge="1" parent="1" source="EHPUk68qeHJAw_Frci1N-7">
          <mxGeometry width="50" height="50" relative="1" as="geometry">
            <mxPoint x="400" y="270" as="sourcePoint" />
            <mxPoint x="20" y="245" as="targetPoint" />
          </mxGeometry>
        </mxCell>
        <mxCell id="EHPUk68qeHJAw_Frci1N-23" value="" style="endArrow=classic;html=1;rounded=0;exitX=0;exitY=0.75;exitDx=0;exitDy=0;exitPerimeter=0;" edge="1" parent="1" source="EHPUk68qeHJAw_Frci1N-7">
          <mxGeometry width="50" height="50" relative="1" as="geometry">
            <mxPoint x="400" y="270" as="sourcePoint" />
            <mxPoint x="20" y="275" as="targetPoint" />
          </mxGeometry>
        </mxCell>
        <mxCell id="EHPUk68qeHJAw_Frci1N-26" value="" style="endArrow=classic;html=1;rounded=0;exitX=0;exitY=0.75;exitDx=0;exitDy=0;exitPerimeter=0;" edge="1" parent="1" source="EHPUk68qeHJAw_Frci1N-7">
          <mxGeometry width="50" height="50" relative="1" as="geometry">
            <mxPoint x="50" y="280" as="sourcePoint" />
            <mxPoint x="220" y="364" as="targetPoint" />
            <Array as="points">
              <mxPoint x="70" y="360" />
            </Array>
          </mxGeometry>
        </mxCell>
        <mxCell id="EHPUk68qeHJAw_Frci1N-27" value="" style="endArrow=classic;html=1;rounded=0;entryX=-0.017;entryY=0.875;entryDx=0;entryDy=0;entryPerimeter=0;" edge="1" parent="1" target="EHPUk68qeHJAw_Frci1N-15">
          <mxGeometry width="50" height="50" relative="1" as="geometry">
            <mxPoint x="50" y="245" as="sourcePoint" />
            <mxPoint x="450" y="240" as="targetPoint" />
            <Array as="points">
              <mxPoint x="50" y="400" />
            </Array>
          </mxGeometry>
        </mxCell>
        <mxCell id="EHPUk68qeHJAw_Frci1N-28" value="" style="ellipse;whiteSpace=wrap;html=1;aspect=fixed;" vertex="1" parent="1">
          <mxGeometry x="280" y="365" width="10" height="10" as="geometry" />
        </mxCell>
        <mxCell id="EHPUk68qeHJAw_Frci1N-32" style="edgeStyle=orthogonalEdgeStyle;rounded=0;orthogonalLoop=1;jettySize=auto;html=1;exitX=0;exitY=0.25;exitDx=0;exitDy=0;exitPerimeter=0;" edge="1" parent="1" source="EHPUk68qeHJAw_Frci1N-29">
          <mxGeometry relative="1" as="geometry">
            <mxPoint x="60" y="400" as="targetPoint" />
          </mxGeometry>
        </mxCell>
        <mxCell id="EHPUk68qeHJAw_Frci1N-33" style="edgeStyle=orthogonalEdgeStyle;rounded=0;orthogonalLoop=1;jettySize=auto;html=1;exitX=0;exitY=0.75;exitDx=0;exitDy=0;exitPerimeter=0;" edge="1" parent="1" source="EHPUk68qeHJAw_Frci1N-29">
          <mxGeometry relative="1" as="geometry">
            <mxPoint x="150" y="360" as="targetPoint" />
          </mxGeometry>
        </mxCell>
        <mxCell id="EHPUk68qeHJAw_Frci1N-29" value="" style="verticalLabelPosition=bottom;shadow=0;dashed=0;align=center;html=1;verticalAlign=top;shape=mxgraph.electrical.logic_gates.logic_gate;operation=or;" vertex="1" parent="1">
          <mxGeometry x="200" y="440" width="100" height="60" as="geometry" />
        </mxCell>
        <mxCell id="EHPUk68qeHJAw_Frci1N-30" style="edgeStyle=orthogonalEdgeStyle;rounded=0;orthogonalLoop=1;jettySize=auto;html=1;entryX=0;entryY=0.75;entryDx=0;entryDy=0;entryPerimeter=0;" edge="1" parent="1" source="EHPUk68qeHJAw_Frci1N-29" target="EHPUk68qeHJAw_Frci1N-13">
          <mxGeometry relative="1" as="geometry" />
        </mxCell>
        <mxCell id="EHPUk68qeHJAw_Frci1N-31" style="edgeStyle=orthogonalEdgeStyle;rounded=0;orthogonalLoop=1;jettySize=auto;html=1;entryX=0;entryY=0.25;entryDx=0;entryDy=0;entryPerimeter=0;" edge="1" parent="1" source="EHPUk68qeHJAw_Frci1N-15" target="EHPUk68qeHJAw_Frci1N-13">
          <mxGeometry relative="1" as="geometry" />
        </mxCell>
        <mxCell id="EHPUk68qeHJAw_Frci1N-34" value="&lt;h1&gt;TASK : IMPLEMENTATION OF FOLLOWING DIAGRAM&lt;/h1&gt;" style="text;html=1;align=center;verticalAlign=middle;resizable=0;points=[];autosize=1;strokeColor=none;fillColor=none;" vertex="1" parent="1">
          <mxGeometry x="30" y="8" width="640" height="70" as="geometry" />
        </mxCell>
        <mxCell id="EHPUk68qeHJAw_Frci1N-35" value="c" style="text;html=1;align=center;verticalAlign=middle;resizable=0;points=[];autosize=1;strokeColor=none;fillColor=none;" vertex="1" parent="1">
          <mxGeometry x="5" y="148" width="30" height="30" as="geometry" />
        </mxCell>
        <mxCell id="EHPUk68qeHJAw_Frci1N-36" value="a" style="text;html=1;align=center;verticalAlign=middle;resizable=0;points=[];autosize=1;strokeColor=none;fillColor=none;" vertex="1" parent="1">
          <mxGeometry x="-5" y="228" width="30" height="30" as="geometry" />
        </mxCell>
        <mxCell id="EHPUk68qeHJAw_Frci1N-37" value="b" style="text;html=1;align=center;verticalAlign=middle;resizable=0;points=[];autosize=1;strokeColor=none;fillColor=none;" vertex="1" parent="1">
          <mxGeometry x="-5" y="260" width="30" height="30" as="geometry" />
        </mxCell>
        <mxCell id="EHPUk68qeHJAw_Frci1N-38" value="x" style="text;html=1;align=center;verticalAlign=middle;resizable=0;points=[];autosize=1;strokeColor=none;fillColor=none;" vertex="1" parent="1">
          <mxGeometry x="555" y="138" width="30" height="30" as="geometry" />
        </mxCell>
        <mxCell id="EHPUk68qeHJAw_Frci1N-39" value="" style="endArrow=classic;html=1;rounded=0;exitX=1;exitY=0.5;exitDx=0;exitDy=0;exitPerimeter=0;" edge="1" parent="1" source="EHPUk68qeHJAw_Frci1N-12">
          <mxGeometry width="50" height="50" relative="1" as="geometry">
            <mxPoint x="400" y="280" as="sourcePoint" />
            <mxPoint x="780" y="270" as="targetPoint" />
          </mxGeometry>
        </mxCell>
        <mxCell id="EHPUk68qeHJAw_Frci1N-40" value="y" style="text;html=1;align=center;verticalAlign=middle;resizable=0;points=[];autosize=1;strokeColor=none;fillColor=none;" vertex="1" parent="1">
          <mxGeometry x="795" y="248" width="30" height="30" as="geometry" />
        </mxCell>
      </root>
    </mxGraphModel>
  </diagram>
</mxfile>
